<svg width="64" height="64" viewBox="0 0 64 64" xmlns="http://www.w3.org/2000/svg">
  <path d="M47.5,20 C47.5,13.0875 41.9125,7.5 35,7.5 C29.4375,7.5 24.7125,10.9875 22.8125,15.9375 C21.0375,15.3375 19.075,15 17,15 C11.2,15 6.5,19.7 6.5,25.5 C6.5,31.075 10.75,35.5375 16.1875,35.7375" fill="#0078D4" stroke="#FFFFFF" stroke-width="1.5"/>
  <path d="M47.5,20 C53.025,20 57.5,24.475 57.5,30 C57.5,35.525 53.025,40 47.5,40 L17,40 C10.6375,40 5.5,34.8625 5.5,28.5 C5.5,22.5125 10.075,17.6625 15.8125,17.1875 C17.4125,10.975 22.9625,6.5 29.5,6.5 C36.4125,6.5 42,12.0875 42,19 C42.925,18.8125 43.875,18.75 44.75,18.75 C46.225,18.75 47.5,20 47.5,20 Z" fill="#7FBA00" opacity="0.7" transform="translate(0, 10)"/>
  <path d="M20,28 Q22,26 24,28" stroke="#FFFFFF" stroke-width="2" fill="none" />
  <path d="M28,32 Q30,30 32,32" stroke="#FFFFFF" stroke-width="2" fill="none" />
  <path d="M36,28 Q38,26 40,28" stroke="#FFFFFF" stroke-width="2" fill="none" />
  <circle cx="20" cy="28" r="2" fill="#FFFFFF" />
  <circle cx="24" cy="28" r="2" fill="#FFFFFF" />
  <circle cx="28" cy="32" r="2" fill="#FFFFFF" />
  <circle cx="32" cy="32" r="2" fill="#FFFFFF" />
  <circle cx="36" cy="28" r="2" fill="#FFFFFF" />
  <circle cx="40" cy="28" r="2" fill="#FFFFFF" />
</svg>
